<svg viewBox="0 0 311 157" fill="none" xmlns="http://www.w3.org/2000/svg">
<g clip-path="url(#clip0_3194_704)">
<path d="M8.7738e-05 113.483L2.63537 104.26C6.1491 108.554 10.9805 112.068 17.1294 114.801C23.2785 117.534 29.3785 118.901 35.4301 118.901C42.5552 118.901 48.2649 116.948 52.5594 113.044C57.0492 109.14 59.294 104.162 59.294 98.1108C59.0012 91.8643 57.0002 87.033 53.2914 83.6168C49.6802 80.2008 43.8728 76.5893 35.8692 72.7829L28.549 69.5619C23.0833 67.0242 18.6423 64.6817 15.2262 62.5345C6.1491 56.6784 1.61054 48.919 1.61054 39.2563C1.61054 31.1551 4.73385 24.4693 10.9805 19.1987C17.2271 13.8306 25.3281 11.1465 35.2835 11.1465C46.3129 11.1465 56.2682 13.733 65.1501 18.9059L62.8076 27.1046C53.9258 18.0275 44.2143 13.489 33.6733 13.489C27.2314 13.489 22.0584 15.2458 18.1543 18.7595C14.2502 22.2732 12.2981 26.763 12.2981 32.2288C12.5909 37.8896 14.4454 42.2818 17.8615 45.4052C21.2776 48.5286 27.0362 51.9935 35.1373 55.7999L42.4575 59.1672C48.9969 62.3882 53.7305 64.9746 56.6587 66.9266C65.4429 72.3925 69.835 80.2495 69.835 90.4979C69.835 99.575 66.4677 106.993 59.7331 112.751C52.9986 118.412 44.4582 121.243 34.1124 121.243C27.9634 121.243 21.7168 120.462 15.3726 118.901C9.12599 117.339 4.00182 115.533 8.7738e-05 113.483Z" fill="#DFE6B9"/>
<path d="M130.441 41.7461H138.933C135.419 48.9688 130.539 60.2417 124.292 75.5656L120.193 85.2281L100.868 131.785C94.816 146.425 84.3236 153.746 69.3905 153.746L70.2687 145.401C72.3184 146.084 74.7098 146.425 77.4427 146.425C81.7372 146.425 85.7389 145.157 89.4477 142.619C93.1568 140.179 96.036 136.519 98.0856 131.639L102.917 119.926L68.8048 41.7461H83.7379L110.091 102.358L117.704 84.2033C125.122 66.0491 129.367 51.8966 130.441 41.7461Z" fill="#DFE6B9"/>
<path d="M147.929 119.486V5.29058L161.252 0.898438H161.838V119.486H147.929Z" fill="#DFE6B9"/>
<path d="M233.262 41.7461H241.753C236.19 52.9704 229.602 67.611 221.988 85.6675L206.47 121.683H205.445L171.04 41.7461H185.973L211.887 102.211L219.5 84.789C227.601 66.0491 232.188 51.7014 233.262 41.7461Z" fill="#DFE6B9"/>
<path d="M310.728 115.972V116.851C306.824 119.291 302.772 120.511 298.578 120.511C291.452 120.511 287.597 116.899 287.011 109.677C278.91 117.192 269.882 120.95 259.926 120.95C253.777 120.95 248.799 119.291 244.993 115.972C241.284 112.654 239.429 108.31 239.429 102.942C239.429 96.3051 242.358 90.8882 248.214 86.6913C254.07 82.3968 262.171 79.7128 272.517 78.639L281.301 77.7605L286.865 77.3214V68.9763C286.865 60.8754 285.4 54.8238 282.472 50.8221C279.544 46.8205 274.762 44.8195 268.124 44.8195C260.512 44.8195 253.191 47.7477 246.164 53.6037L244.846 51.9932C249.336 47.7963 253.777 44.7709 258.169 42.9162C262.659 40.9641 267.783 39.9883 273.541 39.9883C291.696 39.9883 300.773 49.2116 300.773 67.6586V105.138C300.773 109.628 301.163 112.605 301.943 114.069C302.725 115.533 304.725 116.265 307.946 116.265C308.239 116.265 309.166 116.167 310.728 115.972ZM286.865 106.895V79.5176C275.445 80.7863 266.953 83.0311 261.39 86.2522C255.924 89.3753 253.191 94.1578 253.191 100.6C253.191 105.382 254.509 109.091 257.144 111.727C259.78 114.362 263.244 115.68 267.539 115.68C274.371 115.68 280.813 112.751 286.865 106.895Z" fill="#DFE6B9"/>
</g>
<defs>
<clipPath id="clip0_3194_704">
<rect width="310.728" height="155.364" fill="white" transform="translate(0 0.898438)"/>
</clipPath>
</defs>
</svg>
